<?xml version="1.0" encoding="UTF-8" standalone="no"?>
<!-- Created with Inkscape (http://www.inkscape.org/) -->

<svg
   width="121.93896mm"
   height="40.702911mm"
   viewBox="0 0 121.93896 40.702911"
   version="1.1"
   id="svg850"
   sodipodi:docname="frohesfest.svg"
   inkscape:version="1.1.1 (3bf5ae0d25, 2021-09-20)"
   xmlns:inkscape="http://www.inkscape.org/namespaces/inkscape"
   xmlns:sodipodi="http://sodipodi.sourceforge.net/DTD/sodipodi-0.dtd"
   xmlns="http://www.w3.org/2000/svg"
   xmlns:svg="http://www.w3.org/2000/svg">
  <sodipodi:namedview
     id="namedview852"
     pagecolor="#000000"
     bordercolor="#666666"
     borderopacity="1.0"
     inkscape:pageshadow="2"
     inkscape:pageopacity="0"
     inkscape:pagecheckerboard="true"
     inkscape:document-units="mm"
     showgrid="false"
     inkscape:zoom="0.77771465"
     inkscape:cx="232.09027"
     inkscape:cy="207.65971"
     inkscape:window-width="1920"
     inkscape:window-height="1129"
     inkscape:window-x="-8"
     inkscape:window-y="-8"
     inkscape:window-maximized="1"
     inkscape:current-layer="layer1"
     fit-margin-top="0"
     fit-margin-left="0"
     fit-margin-right="0"
     fit-margin-bottom="0" />
  <defs
     id="defs847">
    <rect
       x="50.146927"
       y="37.288742"
       width="482.18198"
       height="48.861103"
       id="rect2277" />
  </defs>
  <g
     inkscape:label="Ebene 1"
     inkscape:groupmode="layer"
     id="layer1"
     transform="translate(-43.591075,-12.056034)">
    <g
       inkscape:label="Hershey Text"
       style="fill:none;stroke:#ffffff;stroke-linecap:round;stroke-linejoin:round;stroke-opacity:1"
       transform="matrix(0.264583,0,0,0.264583,28.1261,0)"
       id="g3955">
      <g
         transform="translate(50.1465,73.7823)"
         id="g3953"
         style="stroke:#ffffff;stroke-opacity:1">
        <path
           d="M 220,662 V 0 m 0,662 H 630 M 220,346 H 472 M 220,0 h 410"
           style="stroke:#ffffff;stroke-width:0.2584in;stroke-opacity:1"
           transform="scale(0.04,-0.04)"
           id="path3913" />
        <path
           d="m 189,662 31,-32 32,32 -32,31 -31,-31 M 220,441 V 0"
           style="stroke:#ffffff;stroke-width:0.2584in;stroke-opacity:1"
           transform="matrix(0.04,0,0,-0.04,23.92,0)"
           id="path3915" />
        <path
           d="M 220,441 V 0 m 0,315 95,95 63,31 h 94 l 64,-31 31,-95 V 0"
           style="stroke:#ffffff;stroke-width:0.2584in;stroke-opacity:1"
           transform="matrix(0.04,0,0,-0.04,34,0)"
           id="path3917" />
        <path
           d="M 410,662 H 346 L 284,630 252,536 V 0 m -94,441 h 220"
           style="stroke:#ffffff;stroke-width:0.2584in;stroke-opacity:1"
           transform="matrix(0.04,0,0,-0.04,73.04,0)"
           id="path3919" />
        <path
           d="M 220,441 V 0 m 0,252 32,94 63,64 63,31 h 94"
           style="stroke:#ffffff;stroke-width:0.2584in;stroke-opacity:1"
           transform="matrix(0.04,0,0,-0.04,88.16,0)"
           id="path3921" />
        <path
           d="M 346,441 284,410 220,346 189,252 V 189 L 220,94.5 284,31.5 346,0 h 95 l 63,31.5 63,63 31,94.5 v 63 l -31,94 -63,64 -63,31 h -95"
           style="stroke:#ffffff;stroke-width:0.2584in;stroke-opacity:1"
           transform="matrix(0.04,0,0,-0.04,104.56,0)"
           id="path3923" />
        <path
           d="M 220,662 V 0 m 0,315 95,95 63,31 h 94 l 64,-31 31,-95 V 0"
           style="stroke:#ffffff;stroke-width:0.2584in;stroke-opacity:1"
           transform="matrix(0.04,0,0,-0.04,128.48,0)"
           id="path3925" />
        <path
           d="m 189,252 h 378 v 63 l -31,63 -32,32 -63,31 H 346 L 284,410 220,346 189,252 V 189 L 220,94.5 284,31.5 346,0 h 95 l 63,31.5 63,63"
           style="stroke:#ffffff;stroke-width:0.2584in;stroke-opacity:1"
           transform="matrix(0.04,0,0,-0.04,152.4,0)"
           id="path3927" />
        <path
           d="m 536,346 -32,64 -94,31 h -95 l -95,-31 -31,-64 31,-62 64,-32 157,-32 63,-31 32,-63 V 94.5 L 504,31.5 410,0 h -95 l -95,31.5 -31,63"
           style="stroke:#ffffff;stroke-width:0.2584in;stroke-opacity:1"
           transform="matrix(0.04,0,0,-0.04,175.08,0)"
           id="path3929" />
        <path
           d="M 220,662 V 0 m 0,662 H 630 M 220,346 h 252"
           style="stroke:#ffffff;stroke-width:0.2584in;stroke-opacity:1"
           transform="matrix(0.04,0,0,-0.04,211.64,0)"
           id="path3931" />
        <path
           d="m 189,252 h 378 v 63 l -31,63 -32,32 -63,31 H 346 L 284,410 220,346 189,252 V 189 L 220,94.5 284,31.5 346,0 h 95 l 63,31.5 63,63"
           style="stroke:#ffffff;stroke-width:0.2584in;stroke-opacity:1"
           transform="matrix(0.04,0,0,-0.04,234.32,0)"
           id="path3933" />
        <path
           d="m 536,346 -32,64 -94,31 h -95 l -95,-31 -31,-64 31,-62 64,-32 157,-32 63,-31 32,-63 V 94.5 L 504,31.5 410,0 h -95 l -95,31.5 -31,63"
           style="stroke:#ffffff;stroke-width:0.2584in;stroke-opacity:1"
           transform="matrix(0.04,0,0,-0.04,257,0)"
           id="path3935" />
        <path
           d="M 252,662 V 126 L 284,31.5 346,0 h 64 M 158,441 h 220"
           style="stroke:#ffffff;stroke-width:0.2584in;stroke-opacity:1"
           transform="matrix(0.04,0,0,-0.04,278.44,0)"
           id="path3937" />
        <path
           d="M 189,441 315,0 M 441,441 315,0 M 441,441 567,0 M 693,441 567,0"
           style="stroke:#ffffff;stroke-width:0.2584in;stroke-opacity:1"
           transform="matrix(0.04,0,0,-0.04,308.68,0)"
           id="path3939" />
        <path
           d="M 220,441 V 126 L 252,31.5 315,0 h 95 l 62,31.5 95,94.5 m 0,315 V 0 m -272,693 -32,-31 32,-32 31,32 -31,31 m 261,0 -32,-31 32,-32 31,32 -31,31"
           style="stroke:#ffffff;stroke-width:0.2584in;stroke-opacity:1"
           transform="matrix(0.04,0,0,-0.04,336.4,0)"
           id="path3941" />
        <path
           d="M 220,441 V 0 m 0,315 95,95 63,31 h 94 l 64,-31 31,-95 V 0"
           style="stroke:#ffffff;stroke-width:0.2584in;stroke-opacity:1"
           transform="matrix(0.04,0,0,-0.04,360.32,0)"
           id="path3943" />
        <path
           d="m 536,346 -32,64 -94,31 h -95 l -95,-31 -31,-64 31,-62 64,-32 157,-32 63,-31 32,-63 V 94.5 L 504,31.5 410,0 h -95 l -95,31.5 -31,63"
           style="stroke:#ffffff;stroke-width:0.2584in;stroke-opacity:1"
           transform="matrix(0.04,0,0,-0.04,384.24,0)"
           id="path3945" />
        <path
           d="m 567,346 -63,64 -63,31 H 346 L 284,410 220,346 189,252 V 189 L 220,94.5 284,31.5 346,0 h 95 l 63,31.5 63,63"
           style="stroke:#ffffff;stroke-width:0.2584in;stroke-opacity:1"
           transform="matrix(0.04,0,0,-0.04,405.68,0)"
           id="path3947" />
        <path
           d="M 220,662 V 0 m 0,315 95,95 63,31 h 94 l 64,-31 31,-95 V 0"
           style="stroke:#ffffff;stroke-width:0.2584in;stroke-opacity:1"
           transform="matrix(0.04,0,0,-0.04,428.36,0)"
           id="path3949" />
        <path
           d="M 252,662 V 126 L 284,31.5 346,0 h 64 M 158,441 h 220"
           style="stroke:#ffffff;stroke-width:0.2584in;stroke-opacity:1"
           transform="matrix(0.04,0,0,-0.04,452.28,0)"
           id="path3951" />
      </g>
    </g>
    <g
       id="g33830"
       transform="matrix(1.1873665,0,0,1.1873665,-205.99252,-38.117035)"
       style="stroke:#ffffff;stroke-opacity:1">
      <path
         style="fill:none;stroke:#ffffff;stroke-width:0.705556px;stroke-linecap:round;stroke-linejoin:miter;stroke-miterlimit:10;stroke-dasharray:none;stroke-opacity:1"
         d="m 246.47746,76.182969 c 0.79375,-0.529166 1.85209,-1.234723 2.91042,-2.293056 2.64583,-2.469444 3.96875,-5.027083 4.85069,-6.702777 0.61737,-1.322917 1.49931,-3.263196 2.11667,-5.644446"
         id="path33743" />
      <path
         style="fill:none;stroke:#ffffff;stroke-width:0.705556px;stroke-linecap:round;stroke-linejoin:miter;stroke-miterlimit:10;stroke-dasharray:none;stroke-opacity:1"
         d="m 262.44066,70.979496 c 0.0882,-0.440973 0.17639,-0.881943 -0.0882,-1.058333 -0.61736,-0.61736 -3.96875,0.440973 -4.23333,2.645833 -0.0882,1.5875 1.4993,3.263194 2.64583,3.175 2.02847,-0.264583 2.73403,-5.997223 2.99861,-5.909027 0.17639,0 -0.17639,1.411111 -0.17639,3.351388 -0.0882,1.058333 0,2.028473 0.0882,2.645833"
         id="path33745" />
      <path
         style="fill:none;stroke:#ffffff;stroke-width:0.705556px;stroke-linecap:round;stroke-linejoin:miter;stroke-miterlimit:10;stroke-dasharray:none;stroke-opacity:1"
         d="m 267.73232,71.508663 c 0.52917,-1.322917 1.85209,-1.940277 2.99862,-1.675694 1.4993,0.352777 2.02847,2.204861 1.76388,3.351388 -0.61736,2.028473 -3.79236,2.822223 -5.11527,1.763889 -0.61736,-0.440973 -0.70556,-1.41111 -0.35278,-4.850693 0.26458,-2.028473 0.52917,-4.7625 1.14653,-7.9375"
         id="path33747" />
      <path
         style="fill:none;stroke:#ffffff;stroke-width:0.705556px;stroke-linecap:round;stroke-linejoin:miter;stroke-miterlimit:10;stroke-dasharray:none;stroke-opacity:1"
         d="m 275.05246,69.48019 c -0.17639,0.705556 -0.35277,1.675696 -0.35277,2.910417 0,1.058333 0.17638,1.940279 0.35277,2.557639"
         id="path33749" />
      <path
         style="fill:none;stroke:#ffffff;stroke-width:0.705556px;stroke-linecap:round;stroke-linejoin:miter;stroke-miterlimit:10;stroke-dasharray:none;stroke-opacity:1"
         d="m 276.19899,66.216996 c -0.35278,0.08819 -0.44097,0.881944 -0.17639,1.058334 0.17639,0.08819 0.70556,-0.08819 0.79375,-0.440973 0,-0.440971 -0.44097,-0.705554 -0.61736,-0.617361 z"
         id="path33751" />
      <path
         style="fill:none;stroke:#ffffff;stroke-width:0.705556px;stroke-linecap:round;stroke-linejoin:miter;stroke-miterlimit:10;stroke-dasharray:none;stroke-opacity:1"
         d="m 277.52191,59.33783 c 2.73403,-1.058334 3.26319,-1.675694 3.175,-2.028473 -0.26459,-1.499304 -14.11111,-1.234721 -27.25209,3.527779 -6.35,2.293054 -14.99305,6.526387 -14.46388,8.466667 0.52916,2.02847 9.87777,1.23472 13.58194,0.705554 5.82083,-0.705554 10.40694,-2.204861 13.40556,-3.439584"
         id="path33753" />
    </g>
  </g>
</svg>
