<?xml version="1.0" encoding="utf-8"?>
<!-- Generator: Adobe Illustrator 26.0.2, SVG Export Plug-In . SVG Version: 6.00 Build 0)  -->
<svg version="1.1" id="Ebene_1" xmlns="http://www.w3.org/2000/svg" xmlns:xlink="http://www.w3.org/1999/xlink" x="0px" y="0px"
	 viewBox="0 0 200 400" style="enable-background:new 0 0 200 400;" xml:space="preserve">
<style type="text/css">
	.st0{fill:none;stroke:#FFFFFF;stroke-width:2;stroke-miterlimit:10;}
	.st1{fill:#FFFFFF;}
	.st2{fill:none;stroke:#FFFFFF;stroke-width:0.5581;stroke-linecap:round;stroke-linejoin:round;stroke-miterlimit:11.3386;}
</style>
<g>
	<g>
		<path class="st0" d="M23.66,108.14c15.71-0.42,25.26,3.87,31.3,8.52c31.7,24.4,23.62,102.18-22.21,193.79"/>
		<g>
			<path class="st1" d="M37.5,117.54c0.29-0.47,0.14-1.09-0.33-1.38l-13.05-7.99l12.75-8.45c0.46-0.31,0.59-0.93,0.28-1.39
				c-0.31-0.46-0.93-0.58-1.39-0.28l-14.06,9.32c-0.28,0.19-0.45,0.51-0.45,0.85c0.01,0.34,0.19,0.66,0.48,0.84l14.39,8.81
				c0.17,0.1,0.36,0.15,0.54,0.15C36.99,118.02,37.31,117.85,37.5,117.54z"/>
		</g>
	</g>
</g>
<g id="layer1">
	<path id="path3757" class="st2" d="M10.32,330.09v19.86 M23.58,330.09l-13.26,13.26 M15.06,338.61l8.52,11.34"/>
	<path id="path3759" class="st2" d="M30.18,330.09v19.86"/>
	<path id="path3761" class="st2" d="M36.81,330.09l0.93,0.96l0.96-0.96l-0.96-0.93L36.81,330.09 M37.74,336.72v13.23"/>
	<path id="path3763" class="st2" d="M55.71,339.57l-1.89-1.92l-1.89-0.93h-2.85l-1.86,0.93l-1.92,1.92l-0.93,2.82v1.89l0.93,2.83
		l1.92,1.89l1.86,0.94h2.85l1.89-0.94l1.89-1.89"/>
	<path id="path3765" class="st2" d="M62.31,330.09v19.86 M71.79,336.72l-9.48,9.45 M66.09,342.39l6.63,7.56"/>
	<path id="path3769" class="st2" d="M10.32,374.22v13.23 M10.32,378l2.85-2.85l1.89-0.93h2.82l1.92,0.93l0.93,2.85v9.45 M20.73,378
		l2.85-2.85l1.86-0.93h2.85l1.89,0.93l0.96,2.85v9.45"/>
	<path id="path3771" class="st2" d="M37.74,367.59l0.93,0.96l0.96-0.96l-0.96-0.93L37.74,367.59 M38.67,374.22v13.23"/>
	<path id="path3773" class="st2" d="M56.64,377.07l-1.89-1.92l-1.89-0.93h-2.85l-1.86,0.93l-1.92,1.92l-0.93,2.82v1.89l0.93,2.84
		l1.92,1.89l1.86,0.94h2.85l1.89-0.94l1.89-1.89"/>
	<path id="path3775" class="st2" d="M63.24,367.59v19.86 M63.24,378l2.85-2.85l1.89-0.93h2.82l1.92,0.93l0.93,2.85v9.45"/>
	<path id="path3777" class="st2" d="M84.03,367.59v13.26 M84.03,385.56l-0.93,0.95l0.93,0.94l0.93-0.94L84.03,385.56"/>
</g>
</svg>
