<?xml version="1.0" encoding="utf-8"?>
<!-- Generator: Adobe Illustrator 23.0.0, SVG Export Plug-In . SVG Version: 6.00 Build 0)  -->
<svg version="1.1" id="Ebene_1" xmlns="http://www.w3.org/2000/svg" xmlns:xlink="http://www.w3.org/1999/xlink" x="0px" y="0px"
	 viewBox="0 0 595.3 595.3" style="enable-background:new 0 0 595.3 595.3;" xml:space="preserve">
<style type="text/css">
	.st0{fill:#FFFFFF;}
</style>
<g>
	<path class="st0" d="M13,564.5c0-177.5,0-355,0-532.6c190.2,0,380.5,0,570.9,0c0,177.5,0,355,0,532.6
		C393.7,564.5,203.4,564.5,13,564.5z M394,340.9c2.8,0.2,4.9,0.6,6.9,0.4c4.6-0.3,9.2-1.2,13.8-1.3c8-0.2,9.8-1.8,7.4-9.6
		c-3.7-11.6-8.3-23-12.5-34.5c-0.8-2.2-1.5-4.5-2.5-7.7c2.2,0.9,3.1,1.3,4.1,1.7c17,7.2,33.9,14.6,50.9,21.6c4,1.7,8.5,2.3,12.9,3
		c1.2,0.2,3.1-0.8,3.9-1.8c0.5-0.5-0.2-2.6-0.9-3.5c-14.1-18.7-31-34.2-51.7-45.4c-4.5-2.5-11-4.1-13-7.9c-2.1-4.1,0-10.4,0.3-15.7
		c1.8-29.5,3.7-58.9,5.4-88.4c0.5-8.2-2.8-14.9-10.3-19.1c-9-4.9-18-9.9-27.2-14.7c-42-21.8-87.2-27.9-133.9-26.3
		c-5.9,0.2-12.8-0.6-17.4,5c-3.9,4.8-8.2,9.3-11.3,14.6c-4.3,7.5-7.6,15.6-11.4,23.4c-8.5,17.5-17.2,35-25.5,52.6
		c-1.5,3.1-3.2,2.3-5.6,1.9c-13.8-2.4-27.6-4.7-41.3-7c-0.3,0.5-0.7,1-1,1.5c5.8,8.8,11.5,17.6,17.6,26.9c-0.5,1-1.6,2.8-2.4,4.8
		c-1.7,3.9-5.2,8.2-4.4,11.6c1,4.5-1,7.2-2.6,10.3c-3.3,6.4-7,12.6-11.2,20c6.2-1.6,11.6-2.9,17-4.3c0.3,0.3,0.5,0.5,0.8,0.8
		c-3.3,3.5-6.5,7-10.2,11c4.6,2.8,3.1,6.9,1.5,11.1c-0.3,0.8,0.3,2,0.4,3c0.1,1.7,0.8,3.7,0.2,5.2c-4.1,11.6-2.4,15.9,8.5,21.1
		c1.9,0.9,3.2,3,4.8,4.5c-0.2,0.3-0.5,0.5-0.7,0.8c1.8,0.1,3.6,0.3,5.4,0.4c0.1,0.4,0.2,0.9,0.3,1.3c-3.9,2.1-7.9,4.1-12.5,6.5
		c6.6,0.6,12.5,1.3,16.4,7.5c-10.8-1.2-21-2.4-31.1-3.6c-2.5,11.7-2.2,22.4,4.9,31.3c7.3,9,13.2,18.4,17.9,29.2
		c3.8,8.9,3.6,14.8-2.7,22.7c-10.9,13.7-21.2,28.1-29.7,43.4c-11.5,20.8-18.6,43.9-31.7,64c1,0.1,2.1,0.2,3.1,0.2
		c85.2,1.3,170.4,2.4,255.6,4.2c28,0.6,56,3.3,84,5c3.9,0.2,7.9,0.4,11.7-0.3c4.9-0.9,5.7-3.5,2.8-7.5c-0.6-0.9-1.3-1.7-2-2.5
		c-11-10.6-18.6-23.2-21.7-38.3c-0.3-1.5-0.9-3.1-1.5-4.5c-8.3-20-16.7-39.9-25-59.9c-3.3-8-5.1-16.2-4.3-24.9
		c0.6-6.3,0.2-12.7,0.5-19c0.1-2.4-0.3-6,1-7c4.1-3.1,2.3-6.3,1.5-9.7C395.4,346.3,394.6,343.4,394,340.9z M395.8,367
		c18.9,7,37.7,14.1,56.7,21c1.3,0.5,4.5-0.6,4.6-1c0.1-2.2-0.2-4.6-1.1-6.6c-0.4-0.9-2.5-1.1-3.8-1.6c-13.4-4.9-26.9-9.9-40.3-14.8
		c-5-1.8-10.1-3.6-15.5-5.4C396.2,361.5,396,364,395.8,367z M464.1,383.9c1.1-3.4,2.1-5.6,2.5-7.9c2.2-13.3,10.7-21.7,21.9-27.8
		c2.9-1.6,7.2-2.1,10.5-1.5c13.3,2.4,24.3-3.3,28.5-16.2c2.9-8.6,5.1-17.4,7.6-26.2c-2.4,2.6-4.1,5.6-5.4,8.8
		c-2.6,6-4.6,12.3-7.6,18.1c-4.3,8.4-12.4,11.9-21.5,9.7c-5.3-1.3-10.2-0.6-14.8,2.2C470.7,351.9,463.1,364.9,464.1,383.9z"/>
	<path d="M394,340.9c0.6,2.5,1.4,5.3,2.1,8.2c0.8,3.4,2.6,6.6-1.5,9.7c-1.3,1-0.9,4.6-1,7c-0.2,6.3,0.1,12.7-0.5,19
		c-0.8,8.8,0.9,16.9,4.3,24.9c8.4,20,16.7,39.9,25,59.9c0.6,1.5,1.2,3,1.5,4.5c3.1,15.1,10.7,27.7,21.7,38.3c0.8,0.7,1.4,1.6,2,2.5
		c2.9,4,2.1,6.7-2.8,7.5c-3.8,0.7-7.8,0.5-11.7,0.3c-28-1.7-56-4.4-84-5c-85.2-1.8-170.4-2.8-255.6-4.2c-1.1,0-2.1-0.1-3.1-0.2
		c13.2-20.1,20.2-43.2,31.7-64c8.5-15.3,18.8-29.7,29.7-43.4c6.2-7.8,6.5-13.7,2.7-22.7c-4.6-10.8-10.6-20.2-17.9-29.2
		c-7.1-8.9-7.4-19.6-4.9-31.3c10.1,1.2,20.3,2.3,31.1,3.6c-4-6.1-9.8-6.9-16.4-7.5c4.6-2.4,8.6-4.5,12.5-6.5
		c-0.1-0.4-0.2-0.9-0.3-1.3c-1.8-0.1-3.6-0.3-5.4-0.4c0.2-0.3,0.5-0.5,0.7-0.8c-1.6-1.5-2.9-3.6-4.8-4.5
		c-10.9-5.2-12.6-9.6-8.5-21.1c0.5-1.5-0.1-3.4-0.2-5.2c-0.1-1-0.7-2.2-0.4-3c1.5-4.2,3-8.3-1.5-11.1c3.7-4,7-7.5,10.2-11
		c-0.3-0.3-0.5-0.5-0.8-0.8c-5.4,1.3-10.7,2.7-17,4.3c4.1-7.3,7.8-13.6,11.2-20c1.6-3.1,3.6-5.7,2.6-10.3c-0.7-3.4,2.7-7.8,4.4-11.6
		c0.8-1.9,1.9-3.8,2.4-4.8c-6.1-9.3-11.9-18.1-17.6-26.9c0.3-0.5,0.7-1,1-1.5c13.8,2.3,27.6,4.6,41.3,7c2.3,0.4,4.1,1.2,5.6-1.9
		c8.4-17.6,17-35.1,25.5-52.6c3.8-7.8,7.1-15.9,11.4-23.4c3-5.3,7.4-9.8,11.3-14.6c4.6-5.6,11.5-4.8,17.4-5
		c46.6-1.6,91.8,4.5,133.9,26.3c9.1,4.7,18.1,9.7,27.2,14.7c7.5,4.1,10.8,10.8,10.3,19.1c-1.7,29.5-3.6,58.9-5.4,88.4
		c-0.3,5.3-2.4,11.6-0.3,15.7c2,3.9,8.4,5.5,13,7.9c20.7,11.2,37.6,26.7,51.7,45.4c0.7,0.9,1.4,3,0.9,3.5c-0.9,1-2.7,2-3.9,1.8
		c-4.4-0.7-8.9-1.3-12.9-3c-17.1-7-34-14.4-50.9-21.6c-0.9-0.4-1.9-0.8-4.1-1.7c1,3.2,1.7,5.5,2.5,7.7c4.2,11.5,8.8,22.8,12.5,34.5
		c2.5,7.8,0.6,9.4-7.4,9.6c-4.6,0.1-9.2,1-13.8,1.3C398.9,341.5,396.8,341.1,394,340.9z M352,127.1c22.8,6.3,42.1,16.7,50,42.3
		c3.5-9.2,1.6-16.7-3.8-22.8C386.1,132.8,369.9,127.8,352,127.1z"/>
	<path d="M395.8,367c0.2-3,0.3-5.5,0.5-8.4c5.4,1.9,10.5,3.6,15.5,5.4c13.4,4.9,26.9,9.8,40.3,14.8c1.3,0.5,3.4,0.7,3.8,1.6
		c0.9,2,1.2,4.4,1.1,6.6c0,0.4-3.2,1.5-4.6,1C433.6,381.1,414.8,374,395.8,367z"/>
	<path d="M464.1,383.9c-1-19,6.6-32,21.7-40.8c4.7-2.7,9.5-3.5,14.8-2.2c9.1,2.2,17.1-1.3,21.5-9.7c3-5.8,5-12.1,7.6-18.1
		c1.4-3.1,3-6.2,5.4-8.8c-2.5,8.7-4.7,17.6-7.6,26.2c-4.3,12.9-15.2,18.6-28.5,16.2c-3.4-0.6-7.6-0.1-10.5,1.5
		c-11.2,6-19.7,14.5-21.9,27.8C466.2,378.3,465.2,380.5,464.1,383.9z"/>
	<path class="st0" d="M352,127.1c17.9,0.7,34.1,5.7,46.2,19.5c5.3,6.1,7.3,13.5,3.8,22.8C394.1,143.8,374.8,133.3,352,127.1z"/>
</g>
</svg>
