<?xml version="1.0" encoding="utf-8"?>
<!-- Generator: Adobe Illustrator 23.0.0, SVG Export Plug-In . SVG Version: 6.00 Build 0)  -->
<svg version="1.1" id="Ebene_1" xmlns="http://www.w3.org/2000/svg" xmlns:xlink="http://www.w3.org/1999/xlink" x="0px" y="0px"
	 viewBox="0 0 595.3 595.3" style="enable-background:new 0 0 595.3 595.3;" xml:space="preserve">
<style type="text/css">
	.st0{clip-path:url(#SVGID_2_);}
	.st1{clip-path:url(#SVGID_4_);}
	.st2{clip-path:url(#SVGID_8_);}
	.st3{clip-path:url(#SVGID_10_);}
	.st4{fill:#002445;}
</style>
<g>
	<defs>
		<path id="SVGID_1_" d="M557,348.9c-12-1.3-14.5-5.8-18.7-32.9c-0.4-2.6-0.8-5.2-1.2-7.7c-0.7-4.1-2.1-6.2-3.8-5.7
			c-6.8,1.9-13.7,1.5-20.1,9c-6.8,7.9-13.3,17-19.8,26c-15,20.7-28.7,11.6-36.9-25c-1.4-6.3-3.2-9.1-6.1-8.7
			c-7.1,0.9-13.2,8.6-19.1,17.4c-7.4,11.1-13.1,27.2-19.5,41.1c-10,21.6-23.7,15.9-30.1-12.4c-2.3-10.3-4-21.3-5.1-32.7
			c-0.9-9.9-3.1-14.3-7.4-14.3c-16.1-0.2-32.2-1.2-48.3,0.3c-7.2,0.7-10.1,6-11.9,23.1c-1.6,15-2.8,30.3-4.3,45.4
			c-2.7,27.8-5.7,55.4-13.3,78.3c-3.6,10.9-7.7,19.3-14,19.7c-8.9,0.5-14.4-11.5-18.2-28.9c-3.9-17.7-5.8-37.1-7-56.9
			c-1-17.8-1.8-35.6-4.6-52.4c-2.5-14.9-6.7-27.5-13.3-28.8c-11.9-2.2-24-1.4-35.9-1.6c-8-0.1-8.6,1-11.4,19.7
			c-5.2,34.3-18.1,49.8-32.4,39.5c-6.7-4.8-11.2-15.9-15.1-29.3c-4.3-14.7-9.2-27.6-17.2-28.5c-12.3-1.4-38.7-0.7-39.6-0.7
			c-5.1-0.6-19.7,33.5-25.1,34.7c-0.9-0.3-1.9-0.6-2.8-0.9c-1.3-0.8-2.5-1.5-3.8-2.3c-3.9-3.8-6.7-10.7-8.6-19.4
			c-1.9-8.7-4.7-11.9-8.6-11.8c-9.7,0.2-19.5-0.3-29.2-0.1c-1.4,0-2.5,0.1-3.4,0.3c0-5.4-0.2-10.8-0.4-16.1
			c-0.1,3.7-0.2,7.5-0.2,11.2c0,164.1,133,297.1,297.1,297.1c162,0,293.7-129.7,297-290.9C585.8,321.1,558.6,348.6,557,348.9z"/>
	</defs>
	<clipPath id="SVGID_2_">
		<use xlink:href="#SVGID_1_"  style="overflow:visible;"/>
	</clipPath>
	<g class="st0">
		<g>
			<defs>
				<rect id="SVGID_3_" x="0" y="0" width="595.3" height="595.3"/>
			</defs>
			<clipPath id="SVGID_4_">
				<use xlink:href="#SVGID_3_"  style="overflow:visible;"/>
			</clipPath>
			<g class="st1">
				<g>
					<defs>
						<rect id="SVGID_5_" x="-5" y="-5" width="605.3" height="605.3"/>
					</defs>
					<clipPath id="SVGID_6_">
						<use xlink:href="#SVGID_5_"  style="overflow:visible;"/>
					</clipPath>
					<g style="clip-path:url(#SVGID_6_);">
						
							<image style="overflow:visible;" width="1262" height="1262" xlink:href="CEA41FF5.jpg"  transform="matrix(0.48 0 0 0.48 -5.28 -5.28)">
						</image>
					</g>
				</g>
			</g>
		</g>
	</g>
</g>
<g>
	<defs>
		<path id="SVGID_7_" d="M12.2,250.4c5.3-12.9,11.4-16.7,18.3-7.5c1,2.4,1.9,4.7,2.9,7.1c2.7,12.1,4.2,25.1,5.7,38.2
			c0.6,5.1,1.5,10.7,3.7,11c8.8,1.2,17.8,4.4,26.2-5.9c11.2-8.2,31-76.9,33.6-83.9c2-5.6,4.4-8.4,7.5-8.7
			c7.6-0.6,10.9,4.4,14.3,21.4c4.2,20.9,5.9,43.7,8.7,65.7c1.2,9.3,3.2,13.6,7.2,13.1c6.6-0.7,13.1,0.2,19.7-1.1
			c4-0.9,8.1-0.2,12.1-4.5c13.5-14.5,21.3-41.2,27.4-72c2.3-11.7,4.6-23.2,8.3-32.7c11.7-30.3,28.5-22,34.4,17
			c3.7,24.8,4.9,50.9,6.4,76.8c0.8,14.8,1.4,16.7,7.5,16.7c16,0.1,32-0.4,48-0.2c4,0,5.7-4.2,6.4-13.4c1.7-22.7,3.4-45.3,5.4-67.8
			c1.9-21.8,4.2-43.3,8.5-63.2c2.6-12.2,3-12.2,7.2-3.4c3.4,7.1,6.5,15.1,10.5,20.4c5.7,7.5,10.1,1.7,10.6-14
			c0.3-11.3,0.4-22.6,0.6-33.9c2.2,4.8,4.4,9.7,6.6,14.5c3.4,15.6,6,31.8,8.1,48.7c3.4,27.4,7.7,53.9,15.5,76
			c8.1,23.2,17.9,38,31.1,35.8c3.6-0.6,5.4-1.9,5.7-12.2c0.4-14.3,1.4-28.7,4.1-41.9c3.7-18.3,13.2-24.1,20-12.2
			c5.8,10.2,11.8,20.1,17.3,31.2c9.1,18.2,19.5,29.3,31.1,34.1c6.5,2.7,9-0.5,11.4-15.2c3.7-22.4,9.4-30.5,18.7-27.6
			c3.7,1.2,22.9,34.1,26.5,36.6c1.2,1.1,6.8,5.5,6.8,5.5c5.7,2.7,11.4,1.5,17.2,1.6c3.5,0,7,0,10.5,0c3.7-0.1,7.3,1,10.9,3.4
			c0-2,0.1-4,0.1-6c0-164.1-133-297.1-297.1-297.1C139.3,0.6,9.9,124.4,1.1,280.6c0.2-0.6,0.3-1.2,0.5-1.7
			C5.1,269.4,8.5,259.5,12.2,250.4z"/>
	</defs>
	<clipPath id="SVGID_8_">
		<use xlink:href="#SVGID_7_"  style="overflow:visible;"/>
	</clipPath>
	<g class="st2">
		<g>
			<defs>
				<rect id="SVGID_9_" x="0" y="-1.3" width="595.3" height="595.3"/>
			</defs>
			<clipPath id="SVGID_10_">
				<use xlink:href="#SVGID_9_"  style="overflow:visible;"/>
			</clipPath>
			<g class="st3">
				<g>
					<defs>
						<rect id="SVGID_11_" x="-5" y="-6.3" width="605.3" height="605.3"/>
					</defs>
					<clipPath id="SVGID_12_">
						<use xlink:href="#SVGID_11_"  style="overflow:visible;"/>
					</clipPath>
					<g style="clip-path:url(#SVGID_12_);">
						
							<image style="overflow:visible;" width="1262" height="1262" xlink:href="CEA41FF7.jpg"  transform="matrix(0.48 0 0 0.48 -5.28 -6.72)">
						</image>
					</g>
				</g>
			</g>
		</g>
	</g>
</g>
<path class="st4" d="M0.6,282.2c0.1,1.4,0.2,2.8,0.2,4.2c0.1-2,0.2-3.9,0.3-5.9C0.9,281.1,0.7,281.7,0.6,282.2z"/>
<path class="st4" d="M594.6,303.7c0,0.1,0,0.1,0,0.2C594.7,303.8,594.7,303.8,594.6,303.7C594.7,303.7,594.7,303.7,594.6,303.7z"/>
<path class="st4" d="M553.1,296.3"/>
</svg>
