<?xml version="1.0" encoding="utf-8"?>
<!-- Generator: Adobe Illustrator 26.3.1, SVG Export Plug-In . SVG Version: 6.00 Build 0)  -->
<svg version="1.1"
	 id="svg2" xmlns:sodipodi="http://sodipodi.sourceforge.net/DTD/sodipodi-0.dtd" xmlns:inkscape="http://www.inkscape.org/namespaces/inkscape" inkscape:version="0.91 r13725" xmlns:svg="http://www.w3.org/2000/svg" xmlns:rdf="http://www.w3.org/1999/02/22-rdf-syntax-ns#" xmlns:cc="http://creativecommons.org/ns#" sodipodi:docname="AStA-Luebeck_Logo_RZZ_sw.svg" xmlns:dc="http://purl.org/dc/elements/1.1/"
	 xmlns="http://www.w3.org/2000/svg" xmlns:xlink="http://www.w3.org/1999/xlink" x="0px" y="0px" viewBox="0 0 879.5 383.2"
	 style="enable-background:new 0 0 879.5 383.2;" xml:space="preserve">
<style type="text/css">
	.st0{fill:#0F4900;}
	.st1{fill:#0F4900;stroke:#0F4900;stroke-width:3;stroke-miterlimit:10;}
	.st2{fill:none;}
</style>
<sodipodi:namedview  bordercolor="#666666" borderopacity="1" fit-margin-bottom="0" fit-margin-left="0" fit-margin-right="0" fit-margin-top="0" gridtolerance="10" guidetolerance="10" id="namedview99" inkscape:current-layer="svg2" inkscape:cx="423.77435" inkscape:cy="162.51655" inkscape:pageopacity="0" inkscape:pageshadow="2" inkscape:window-height="480" inkscape:window-maximized="0" inkscape:window-width="721" inkscape:window-x="0" inkscape:window-y="0" inkscape:zoom="0.31072942" objecttolerance="10" pagecolor="#ffffff" showgrid="false">
	</sodipodi:namedview>
<g id="text12" transform="matrix(1,0,0,-1,248.6284,207.002)">
	<path id="path105" inkscape:connector-curvature="0" class="st0" d="M-21.4-117.6l3.2-9.4h4.1l-10.2,30h-4.7l-10.2-30h4l3.1,9.4
		C-32-117.6-21.4-117.6-21.4-117.6z M-31.2-114.5l2.9,8.7c0.6,1.8,1.1,3.7,1.5,5.4h0.1c0.4-1.7,0.9-3.5,1.6-5.5l2.9-8.6
		C-22.2-114.5-31.2-114.5-31.2-114.5z"/>
	<path id="path107" inkscape:connector-curvature="0" class="st0" d="M-9.9-127H-6v31.6h-3.9V-127z"/>
	<path id="path109" inkscape:connector-curvature="0" class="st0" d="M0.6-127h3.9v31.6H0.6V-127z"/>
	<path id="path111" inkscape:connector-curvature="0" class="st0" d="M29.6-111.4c0,2.6,0.1,4.4,0.2,5.9h-3.4l-0.2-3.3H26
		c-0.9,1.8-3,3.7-6.7,3.7c-4.9,0-9.7-4.1-9.7-11.4c0-6,3.8-10.5,9.2-10.5c3.3,0,5.7,1.6,6.9,3.6h0.1v-2.4c0-5.4-2.9-7.5-6.9-7.5
		c-2.7,0-4.9,0.8-6.3,1.7l-1-3c1.7-1.2,4.6-1.8,7.2-1.8c2.7,0,5.7,0.6,7.8,2.6c2.1,1.9,3.1,4.9,3.1,9.8
		C29.6-123.9,29.6-111.4,29.6-111.4z M25.7-117.8c0-0.7-0.1-1.4-0.3-2.1c-0.8-2.5-3-4-5.4-4c-4.2,0-6.4,3.5-6.4,7.8
		c0,5,2.7,8.2,6.4,8.2c2.9,0,4.8-1.9,5.5-4.1c0.2-0.5,0.2-1.1,0.2-1.8C25.7-114,25.7-117.8,25.7-117.8z"/>
	<path id="path113" inkscape:connector-curvature="0" class="st0" d="M53.4-116.9c0,0.4,0.1,1,0.1,1.8c0,4-1.9,10.2-8.9,10.2
		c-6.3,0-10.1-5.1-10.1-11.6s4-10.9,10.6-10.9c3.4,0,5.8,0.8,7.2,1.4l-0.7,2.8c-1.5-0.6-3.2-1.1-6-1.1c-3.9,0-7.3,2.2-7.4,7.5H53.4z
		 M38.3-114.1c0.3,2.7,2,6.4,6,6.4c4.4,0,5.5-3.9,5.4-6.4H38.3z"/>
	<path id="path115" inkscape:connector-curvature="0" class="st0" d="M58.4-127h3.8v13c0,0.7,0.1,1.3,0.3,1.9c0.6,2,2.4,3.9,4.9,3.9
		c3,0,4.5-2.5,4.5-5.9V-127h3.8v13.3c0,0.7,0.1,1.4,0.3,2c0.7,1.9,2.4,3.6,4.6,3.6c3.2,0,4.7-2.5,4.7-6.6V-127h3.8v12.7
		c0,7.5-4.2,9.4-7.1,9.4c-2,0-3.5-0.5-4.8-1.5c-0.9-0.7-1.7-1.6-2.4-2.8h-0.1c-0.9,2.5-3.2,4.3-6.1,4.3c-3.6,0-5.6-1.9-6.8-4h-0.1
		l-0.2,3.5h-3.4c0.1-1.8,0.2-3.6,0.2-5.8V-127z"/>
	<path id="path117" inkscape:connector-curvature="0" class="st0" d="M112.8-116.9c0,0.4,0.1,1,0.1,1.8c0,4-1.9,10.2-8.9,10.2
		c-6.3,0-10.1-5.1-10.1-11.6s4-10.9,10.6-10.9c3.4,0,5.8,0.8,7.2,1.4l-0.7,2.8c-1.5-0.6-3.2-1.1-6-1.1c-3.9,0-7.3,2.2-7.4,7.5
		C97.7-116.9,112.8-116.9,112.8-116.9z M97.7-114.1c0.3,2.7,2,6.4,6,6.4c4.4,0,5.5-3.9,5.4-6.4H97.7z"/>
	<path id="path119" inkscape:connector-curvature="0" class="st0" d="M121.8-127v21.6h-3.9V-127H121.8z M119.8-96.9
		c-1.4,0-2.4-1.1-2.4-2.4c0-1.3,1-2.4,2.4-2.4c1.6,0,2.5,1.1,2.5,2.4C122.2-98,121.3-96.9,119.8-96.9L119.8-96.9z"/>
	<path id="path121" inkscape:connector-curvature="0" class="st0" d="M128.3-127h3.9v13c0,0.7,0.1,1.3,0.3,1.8c0.7,2.2,2.7,4,5.3,4
		c3.7,0,5-2.9,5-6.4V-127h3.9v12.9c0,7.4-4.6,9.2-7.6,9.2c-3.6,0-6.1-2-7.1-4.1h-0.1l-0.2,3.6h-3.5c0.1-1.8,0.2-3.6,0.2-5.8
		L128.3-127L128.3-127z"/>
	<path id="path123" inkscape:connector-curvature="0" class="st0" d="M170.3-116.9c0,0.4,0.1,1,0.1,1.8c0,4-1.9,10.2-8.9,10.2
		c-6.3,0-10.1-5.1-10.1-11.6s4-10.9,10.6-10.9c3.4,0,5.8,0.8,7.2,1.4l-0.7,2.8c-1.5-0.6-3.2-1.1-6-1.1c-3.9,0-7.3,2.2-7.4,7.5H170.3
		L170.3-116.9z M155.2-114.1c0.3,2.7,2,6.4,6,6.4c4.4,0,5.5-3.9,5.4-6.4H155.2z"/>
	<path id="path125" inkscape:connector-curvature="0" class="st0" d="M175.3-127h3.9v11.5c0,0.7,0.1,1.3,0.2,1.8
		c0.5,2.9,2.5,5,5.3,5c0.5,0,0.9,0,1.3-0.1v3.7c-0.4,0.1-0.7,0.1-1.1,0.1c-2.6,0-5-1.8-6-4.7h-0.2l-0.1,4.2h-3.4
		c0.1-2,0.2-4.2,0.2-6.7L175.3-127L175.3-127z"/>
	<path id="path127" inkscape:connector-curvature="0" class="st0" d="M-248.6-174.3c1.6-1.1,4.8-2,7.7-2c7.1,0,10.5,4.1,10.5,8.7
		c0,4.4-2.6,6.9-7.7,8.8c-4.1,1.6-6,3-6,5.8c0,2,1.6,4.5,5.7,4.5c2.7,0,4.7-0.9,5.7-1.4l1.1,3.2c-1.3,0.8-3.6,1.5-6.6,1.5
		c-5.8,0-9.7-3.5-9.7-8.2c0-4.2,3-6.8,7.9-8.5c4.1-1.6,5.7-3.2,5.7-6c0-3-2.3-5.1-6.3-5.1c-2.7,0-5.2,0.9-6.9,2L-248.6-174.3z"/>
	<path id="path129" inkscape:connector-curvature="0" class="st0" d="M-224.5-150.2v-4h-3.3v-3h3.3v-11.8c0-2.5,0.4-4.5,1.5-5.6
		c0.9-1.1,2.4-1.7,4.2-1.7c1.5,0,2.7,0.3,3.5,0.6l-0.2,2.9c-0.6-0.2-1.2-0.3-2.3-0.3c-2.2,0-2.9,1.5-2.9,4.2v11.6h5.6v3h-5.6v5.2
		L-224.5-150.2L-224.5-150.2z"/>
	<path id="path131" inkscape:connector-curvature="0" class="st0" d="M-192.6-154.2h-3.9v-13.2c0-0.7-0.1-1.4-0.4-2
		c-0.7-1.7-2.5-3.6-5.2-3.6c-3.6,0-4.8,2.8-4.8,6.9v11.9h-3.9v-12.6c0-7.6,4.1-9.4,7.4-9.4c3.8,0,6.1,2.3,7.1,4h0.1l0.2-3.5h3.5
		c-0.1,1.7-0.2,3.7-0.2,5.9L-192.6-154.2L-192.6-154.2z"/>
	<path id="path133" inkscape:connector-curvature="0" class="st0" d="M-171.4-144.1V-157h-0.1c-1,1.7-3.2,3.3-6.5,3.3
		c-5.3,0-9.7-4.4-9.7-11.6c0-6.5,4-11,9.2-11c3.5,0,6.1,1.8,7.3,4.2h0.1l0.2-3.7h3.5c-0.1,1.5-0.2,3.7-0.2,5.6v26.1
		C-167.5-144.1-171.4-144.1-171.4-144.1z M-171.4-166.7c0-0.6,0-1.2-0.2-1.7c-0.7-2.9-3.1-4.7-5.7-4.7c-4.2,0-6.4,3.6-6.4,8
		c0,4.8,2.4,8.3,6.5,8.3c2.9,0,5.1-2,5.7-4.5c0.1-0.5,0.2-1.2,0.2-1.6C-171.4-163-171.4-166.7-171.4-166.7z"/>
	<path id="path135" inkscape:connector-curvature="0" class="st0" d="M-157.1-175.7v21.6h-3.9v-21.6H-157.1z M-159-145.7
		c-1.4,0-2.4-1.1-2.4-2.4c0-1.3,1-2.4,2.4-2.4c1.6,0,2.5,1.1,2.5,2.4C-156.6-146.7-157.6-145.7-159-145.7z"/>
	<path id="path137" inkscape:connector-curvature="0" class="st0" d="M-133.3-165.7c0,0.4,0.1,1,0.1,1.8c0,4-1.9,10.2-8.9,10.2
		c-6.3,0-10.1-5.1-10.1-11.6s4-10.9,10.6-10.9c3.4,0,5.8,0.8,7.2,1.4l-0.7,2.8c-1.5-0.6-3.2-1.1-6-1.1c-3.9,0-7.3,2.2-7.4,7.5
		H-133.3L-133.3-165.7z M-148.4-162.9c0.3,2.7,2,6.4,6,6.4c4.4,0,5.5-3.9,5.4-6.4H-148.4z"/>
	<path id="path139" inkscape:connector-curvature="0" class="st0" d="M-128.3-175.7h3.9v11.5c0,0.7,0.1,1.3,0.2,1.8
		c0.5,2.9,2.5,5,5.3,5c0.5,0,0.9,0,1.3-0.1v3.7c-0.4,0.1-0.7,0.1-1.1,0.1c-2.6,0-5-1.8-6-4.7h-0.2l-0.1,4.2h-3.4
		c0.1-2,0.2-4.2,0.2-6.7C-128.3-160.9-128.3-175.7-128.3-175.7z"/>
	<path id="path141" inkscape:connector-curvature="0" class="st0" d="M-96.8-165.7c0,0.4,0.1,1,0.1,1.8c0,4-1.9,10.2-8.9,10.2
		c-6.3,0-10.1-5.1-10.1-11.6s4-10.9,10.6-10.9c3.4,0,5.8,0.8,7.2,1.4l-0.7,2.8c-1.5-0.6-3.2-1.1-6-1.1c-3.9,0-7.3,2.2-7.4,7.5H-96.8
		z M-111.9-162.9c0.3,2.7,2,6.4,6,6.4c4.4,0,5.5-3.9,5.4-6.4C-100.5-162.9-111.9-162.9-111.9-162.9z"/>
	<path id="path143" inkscape:connector-curvature="0" class="st0" d="M-91.8-175.7h3.9v13c0,0.7,0.1,1.3,0.3,1.8
		c0.7,2.2,2.7,4,5.3,4c3.7,0,5-2.9,5-6.4v-12.4h3.9v12.9c0,7.4-4.6,9.2-7.6,9.2c-3.6,0-6.1-2-7.1-4.1h-0.1l-0.2,3.6H-92
		c0.1-1.8,0.2-3.6,0.2-5.8C-91.8-160-91.8-175.7-91.8-175.7z"/>
	<path id="path145" inkscape:connector-curvature="0" class="st0" d="M-52.4-144.1V-157h-0.1c-1,1.7-3.2,3.3-6.5,3.3
		c-5.3,0-9.7-4.4-9.7-11.6c0-6.5,4-11,9.2-11c3.5,0,6.1,1.8,7.3,4.2h0.1l0.2-3.7h3.5c-0.1,1.5-0.2,3.7-0.2,5.6v26.1
		C-48.5-144.1-52.4-144.1-52.4-144.1z M-52.4-166.7c0-0.6,0-1.2-0.2-1.7c-0.7-2.9-3.1-4.7-5.7-4.7c-4.2,0-6.4,3.6-6.4,8
		c0,4.8,2.4,8.3,6.5,8.3c2.9,0,5.1-2,5.7-4.5c0.1-0.5,0.2-1.2,0.2-1.6C-52.4-163-52.4-166.7-52.4-166.7z"/>
	<path id="path147" inkscape:connector-curvature="0" class="st0" d="M-24.7-165.7c0,0.4,0.1,1,0.1,1.8c0,4-1.9,10.2-8.9,10.2
		c-6.3,0-10.1-5.1-10.1-11.6s4-10.9,10.6-10.9c3.4,0,5.8,0.8,7.2,1.4l-0.7,2.8c-1.5-0.6-3.2-1.1-6-1.1c-3.9,0-7.3,2.2-7.4,7.5
		C-39.8-165.7-24.7-165.7-24.7-165.7z M-39.8-162.9c0.3,2.7,2,6.4,6,6.4c4.4,0,5.5-3.9,5.4-6.4C-28.3-162.9-39.8-162.9-39.8-162.9z"
		/>
	<path id="path149" inkscape:connector-curvature="0" class="st0" d="M-19.7-175.7h3.9v13c0,0.7,0.1,1.3,0.3,1.8
		c0.7,2.2,2.7,4,5.3,4c3.7,0,5-2.9,5-6.4v-12.4h3.9v12.9c0,7.4-4.6,9.2-7.6,9.2c-3.6,0-6.1-2-7.1-4.1h-0.1l-0.2,3.6h-3.5
		c0.1-1.8,0.2-3.6,0.2-5.8C-19.7-160-19.7-175.7-19.7-175.7z"/>
	<path id="path151" inkscape:connector-curvature="0" class="st0" d="M20.2-162.5c0,4.3-1.6,8.8-8.2,8.8c-2.7,0-5.3-0.8-7.1-1.9
		l0.9-2.6c1.5,1,3.6,1.6,5.6,1.6c4.4,0,4.9-3.2,4.9-5v-0.4c-8.3,0-13-2.8-13-8c0-3.1,2.2-6.2,6.6-6.2c3.1,0,5.4,1.5,6.6,3.2h0.1
		l0.3-2.7h3.6c-0.3,1.5-0.4,3.3-0.4,5.2C20.2-170.6,20.2-162.5,20.2-162.5z M16.4-168.5c0-0.4-0.1-0.8-0.2-1.2
		c-0.6-1.8-2.4-3.6-5.2-3.6c-2,0-3.7,1.2-3.7,3.7c0,4.2,4.9,4.9,9.1,4.9V-168.5z"/>
	<path id="path153" inkscape:connector-curvature="0" class="st0" d="M44.6-154.2h-3.9v-13.2c0-0.7-0.1-1.4-0.4-2
		c-0.7-1.7-2.5-3.6-5.2-3.6c-3.6,0-4.8,2.8-4.8,6.9v11.9h-3.9v-12.6c0-7.6,4.1-9.4,7.4-9.4c3.8,0,6.1,2.3,7.1,4H41l0.2-3.5h3.5
		c-0.1,1.7-0.2,3.7-0.2,5.9C44.6-169.9,44.6-154.2,44.6-154.2z"/>
	<path id="path155" inkscape:connector-curvature="0" class="st0" d="M49.6-174.7c1.5-0.9,3.7-1.5,6.1-1.5c5.1,0,8.1,2.7,8.1,6.5
		c0,3.2-1.9,5.1-5.7,6.5c-2.8,1.1-4.1,1.9-4.1,3.7c0,1.6,1.3,2.9,3.6,2.9c2,0,3.6-0.7,4.4-1.2l1,2.9c-1.2,0.7-3.1,1.3-5.3,1.3
		c-4.6,0-7.4-2.9-7.4-6.3c0-2.6,1.8-4.7,5.7-6.1c2.9-1.1,4-2.1,4-4c0-1.8-1.3-3.2-4.2-3.2c-2,0-4,0.8-5.2,1.6
		C50.5-171.7,49.6-174.7,49.6-174.7z"/>
	<path id="path157" inkscape:connector-curvature="0" class="st0" d="M67.2-174.7c1.5-0.9,3.7-1.5,6.1-1.5c5.1,0,8.1,2.7,8.1,6.5
		c0,3.2-1.9,5.1-5.7,6.5c-2.8,1.1-4.1,1.9-4.1,3.7c0,1.6,1.3,2.9,3.6,2.9c2,0,3.6-0.7,4.4-1.2l1,2.9c-1.2,0.7-3.1,1.3-5.3,1.3
		c-4.6,0-7.4-2.9-7.4-6.3c0-2.6,1.8-4.7,5.7-6.1c2.9-1.1,4-2.1,4-4c0-1.8-1.3-3.2-4.2-3.2c-2,0-4,0.8-5.2,1.6
		C68.2-171.7,67.2-174.7,67.2-174.7z"/>
	<path id="path159" inkscape:connector-curvature="0" class="st0" d="M101-172c-1.1-0.5-2.6-1.1-4.8-1.1c-4.3,0-7.5,3.1-7.5,8.1
		c0,4.5,2.7,8.2,7.6,8.2c2.1,0,3.6-0.5,4.5-1l0.9,3c-1.1,0.5-3.1,1.1-5.4,1.1c-7,0-11.6-4.8-11.6-11.4c0-6.6,4.2-11,10.7-11
		c2.9,0,5.2,0.8,6.2,1.3L101-172z"/>
	<path id="path161" inkscape:connector-curvature="0" class="st0" d="M106.3-175.7h3.9v13c0,0.8,0,1.3,0.3,1.9
		c0.7,2.1,2.7,3.9,5.3,3.9c3.7,0,5-2.9,5-6.4v-12.4h3.9v12.8c0,7.4-4.6,9.2-7.5,9.2c-1.5,0-2.9-0.4-4-1.1c-1.2-0.7-2.2-1.6-2.8-2.8
		h-0.1v13.5h-3.9L106.3-175.7L106.3-175.7z"/>
	<path id="path163" inkscape:connector-curvature="0" class="st0" d="M149.1-154.2h-3.9v-13.2c0-0.7-0.1-1.4-0.4-2
		c-0.7-1.7-2.5-3.6-5.2-3.6c-3.6,0-4.8,2.8-4.8,6.9v11.9h-3.9v-12.6c0-7.6,4.1-9.4,7.4-9.4c3.8,0,6.1,2.3,7.1,4h0.1l0.2-3.5h3.5
		c-0.1,1.7-0.2,3.7-0.2,5.9L149.1-154.2L149.1-154.2z"/>
	<path id="path165" inkscape:connector-curvature="0" class="st0" d="M154.1-174.7c1.5-0.9,3.7-1.5,6.1-1.5c5.1,0,8.1,2.7,8.1,6.5
		c0,3.2-1.9,5.1-5.7,6.5c-2.8,1.1-4.1,1.9-4.1,3.7c0,1.6,1.3,2.9,3.6,2.9c2,0,3.6-0.7,4.4-1.2l1,2.9c-1.2,0.7-3.1,1.3-5.3,1.3
		c-4.6,0-7.4-2.9-7.4-6.3c0-2.6,1.8-4.7,5.7-6.1c2.9-1.1,4-2.1,4-4c0-1.8-1.3-3.2-4.2-3.2c-2,0-4,0.8-5.2,1.6L154.1-174.7
		L154.1-174.7z"/>
	<path id="path167" inkscape:connector-curvature="0" class="st0" d="M171.7-174.7c1.5-0.9,3.7-1.5,6.1-1.5c5.1,0,8.1,2.7,8.1,6.5
		c0,3.2-1.9,5.1-5.7,6.5c-2.8,1.1-4.1,1.9-4.1,3.7c0,1.6,1.3,2.9,3.6,2.9c2,0,3.6-0.7,4.4-1.2l1,2.9c-1.2,0.7-3.1,1.3-5.3,1.3
		c-4.6,0-7.4-2.9-7.4-6.3c0-2.6,1.8-4.7,5.7-6.1c2.9-1.1,4-2.1,4-4c0-1.8-1.3-3.2-4.2-3.2c-2,0-4,0.8-5.2,1.6L171.7-174.7
		L171.7-174.7z"/>
	<path id="path169" inkscape:connector-curvature="0" class="st0" d="M243.5-97v-17.7c0-9.3,4.6-12.8,10.8-12.8
		c6.5,0,11.4,3.8,11.4,13V-97h-3.9v-17.8c0-6.6-2.9-9.6-7.3-9.6c-4,0-7,2.9-7,9.6V-97H243.5L243.5-97z"/>
	<path id="path171" inkscape:connector-curvature="0" class="st0" d="M272.2-127h3.9v13c0,0.7,0.1,1.3,0.3,1.8c0.7,2.2,2.7,4,5.3,4
		c3.7,0,5-2.9,5-6.4V-127h3.9v12.9c0,7.4-4.6,9.2-7.6,9.2c-3.6,0-6.1-2-7.1-4.1h-0.1l-0.2,3.6h-3.5c0.1-1.8,0.2-3.6,0.2-5.8V-127
		L272.2-127z"/>
	<path id="path173" inkscape:connector-curvature="0" class="st0" d="M300.9-127v21.6H297V-127H300.9z M298.9-96.9
		c-1.4,0-2.4-1.1-2.4-2.4c0-1.3,1-2.4,2.4-2.4c1.6,0,2.5,1.1,2.5,2.4C301.3-98,300.4-96.9,298.9-96.9L298.9-96.9z"/>
	<path id="path175" inkscape:connector-curvature="0" class="st0" d="M304.7-105.5l8.2-21.6h3.7l8.5,21.6H321l-4.2-12.1
		c-0.7-2-1.3-3.7-1.8-5.5h-0.1c-0.4,1.8-1,3.6-1.7,5.5l-4.2,12.1H304.7L304.7-105.5z"/>
	<path id="path177" inkscape:connector-curvature="0" class="st0" d="M345.7-116.9c0,0.4,0.1,1,0.1,1.8c0,4-1.9,10.2-8.9,10.2
		c-6.3,0-10.1-5.1-10.1-11.6s4-10.9,10.6-10.9c3.4,0,5.8,0.8,7.2,1.4l-0.7,2.8c-1.5-0.6-3.2-1.1-6-1.1c-3.9,0-7.3,2.2-7.4,7.5H345.7
		z M330.6-114.1c0.3,2.7,2,6.4,6,6.4c4.4,0,5.5-3.9,5.4-6.4H330.6z"/>
	<path id="path179" inkscape:connector-curvature="0" class="st0" d="M350.7-127h3.9v11.5c0,0.7,0.1,1.3,0.2,1.8
		c0.5,2.9,2.5,5,5.3,5c0.5,0,0.9,0,1.3-0.1v3.7c-0.4,0.1-0.7,0.1-1.1,0.1c-2.6,0-5-1.8-6-4.7h-0.2l-0.1,4.2h-3.4
		c0.1-2,0.2-4.2,0.2-6.7C350.7-112.2,350.7-127,350.7-127z"/>
	<path id="path181" inkscape:connector-curvature="0" class="st0" d="M363.7-126c1.5-0.9,3.7-1.5,6.1-1.5c5.1,0,8.1,2.7,8.1,6.5
		c0,3.2-1.9,5.1-5.7,6.5c-2.8,1.1-4.1,1.9-4.1,3.7c0,1.6,1.3,2.9,3.6,2.9c2,0,3.6-0.7,4.4-1.2l1,2.9c-1.2,0.7-3.1,1.3-5.3,1.3
		c-4.6,0-7.4-2.9-7.4-6.3c0-2.6,1.8-4.7,5.7-6.1c2.9-1.1,4-2.1,4-4c0-1.8-1.3-3.2-4.2-3.2c-2,0-4,0.8-5.2,1.6L363.7-126L363.7-126z"
		/>
	<path id="path183" inkscape:connector-curvature="0" class="st0" d="M386.8-127v21.6h-3.9V-127H386.8z M384.8-96.9
		c-1.4,0-2.4-1.1-2.4-2.4c0-1.3,1-2.4,2.4-2.4c1.6,0,2.5,1.1,2.5,2.4C387.2-98,386.3-96.9,384.8-96.9L384.8-96.9z"/>
	<path id="path185" inkscape:connector-curvature="0" class="st0" d="M394.2-101.5v-4h-3.3v-3h3.3v-11.8c0-2.5,0.4-4.5,1.5-5.6
		c0.9-1.1,2.4-1.7,4.2-1.7c1.5,0,2.7,0.3,3.5,0.6l-0.2,2.9c-0.6-0.2-1.2-0.3-2.3-0.3c-2.2,0-2.9,1.5-2.9,4.2v11.6h5.6v3H398v5.2
		L394.2-101.5z"/>
	<path id="path187" inkscape:connector-curvature="0" class="st0" d="M411.4-101.6c1.3,0,2.2,1.1,2.2,2.3c0,1.3-0.9,2.3-2.2,2.3
		s-2.3-1-2.3-2.3C409.2-100.6,410.1-101.6,411.4-101.6L411.4-101.6L411.4-101.6z M419.7-101.6c1.3,0,2.2,1.1,2.2,2.3
		c0,1.3-0.9,2.3-2.2,2.3s-2.2-1-2.2-2.3C417.4-100.6,418.3-101.6,419.7-101.6L419.7-101.6z M423.2-113.8c0,4.3-1.6,8.8-8.2,8.8
		c-2.7,0-5.3-0.8-7.1-1.9l0.9-2.6c1.5,1,3.6,1.6,5.6,1.6c4.4,0,4.9-3.2,4.9-5v-0.4c-8.3,0-13-2.8-13-8c0-3.1,2.2-6.2,6.6-6.2
		c3.1,0,5.4,1.5,6.6,3.2h0.1l0.3-2.7h3.6c-0.3,1.5-0.4,3.3-0.4,5.2C423.2-121.8,423.2-113.8,423.2-113.8z M419.4-119.8
		c0-0.4-0.1-0.8-0.2-1.2c-0.6-1.8-2.4-3.6-5.2-3.6c-2,0-3.7,1.2-3.7,3.7c0,4.2,4.9,4.9,9.1,4.9L419.4-119.8L419.4-119.8z"/>
	<path id="path189" inkscape:connector-curvature="0" class="st0" d="M430.2-101.5v-4h-3.3v-3h3.3v-11.8c0-2.5,0.4-4.5,1.5-5.6
		c0.9-1.1,2.4-1.7,4.2-1.7c1.5,0,2.7,0.3,3.5,0.6l-0.2,2.9c-0.6-0.2-1.2-0.3-2.3-0.3c-2.2,0-2.9,1.5-2.9,4.2v11.6h5.6v3h-5.6v5.2
		L430.2-101.5L430.2-101.5z"/>
	<path id="path191" inkscape:connector-curvature="0" class="st0" d="M243-175.7h17.5v3.1h-12.6v0.1c1,1.1,1.9,2.2,2.8,3.4l9.6,12.5
		l0,2.4h-16.4v-3.2h11.7v-0.1c-1-1.2-1.9-2.2-2.8-3.3l-9.8-12.7L243-175.7L243-175.7z"/>
	<path id="path193" inkscape:connector-curvature="0" class="st0" d="M283.9-154.2h-3.9v-13.2c0-0.7-0.1-1.4-0.4-2
		c-0.7-1.7-2.5-3.6-5.2-3.6c-3.6,0-4.8,2.8-4.8,6.9v11.9h-3.9v-12.6c0-7.6,4.1-9.4,7.4-9.4c3.8,0,6.1,2.3,7.1,4h0.1l0.2-3.5h3.5
		c-0.1,1.7-0.2,3.7-0.2,5.9C283.9-169.9,283.9-154.2,283.9-154.2z"/>
	<path id="path195" inkscape:connector-curvature="0" class="st0" d="M302.5-175.7h16.7v3.3h-12.8v26.8h-3.9V-175.7z"/>
	<path id="path197" inkscape:connector-curvature="0" class="st0" d="M329.1-150.4c1.3,0,2.2,1.1,2.2,2.3c0,1.3-0.9,2.3-2.2,2.3
		s-2.3-1-2.3-2.3C326.8-149.3,327.7-150.4,329.1-150.4L329.1-150.4L329.1-150.4z M337.3-150.4c1.3,0,2.2,1.1,2.2,2.3
		c0,1.3-0.9,2.3-2.2,2.3c-1.2,0-2.2-1-2.2-2.3C335.1-149.3,336-150.4,337.3-150.4L337.3-150.4z M342.1-154.2h-3.9v-13.2
		c0-0.7-0.1-1.4-0.4-2c-0.7-1.7-2.5-3.6-5.2-3.6c-3.6,0-4.8,2.8-4.8,6.9v11.9h-3.9v-12.6c0-7.6,4.1-9.4,7.4-9.4c3.8,0,6.1,2.3,7.1,4
		h0.1l0.2-3.5h3.5c-0.1,1.7-0.2,3.7-0.2,5.9L342.1-154.2L342.1-154.2z"/>
	<path id="path199" inkscape:connector-curvature="0" class="st0" d="M349.9-170.2c0-1.9-0.1-4.1-0.2-5.6h3.4l0.2,3.6h0.1
		c1.6-2.9,4.1-4.1,7.2-4.1c4.8,0,9.7,3.8,9.7,11.5c0,6.5-3.7,11-9.1,11c-3.5,0-6-1.6-7.3-4h-0.1v13.5h-3.9V-170.2z M353.7-163.2
		c0,0.6,0.1,1.2,0.2,1.6c0.8,3,3.3,4.8,6,4.8c4.2,0,6.4-3.7,6.4-8c0-4.9-2.4-8.3-6.5-8.3c-2.9,0-5.1,1.9-5.9,4.6
		c-0.1,0.4-0.2,0.9-0.2,1.4L353.7-163.2L353.7-163.2z"/>
	<path id="path201" inkscape:connector-curvature="0" class="st0" d="M393.8-165.7c0,0.4,0.1,1,0.1,1.8c0,4-1.9,10.2-8.9,10.2
		c-6.3,0-10.1-5.1-10.1-11.6s4-10.9,10.6-10.9c3.4,0,5.8,0.8,7.2,1.4l-0.7,2.8c-1.5-0.6-3.2-1.1-6-1.1c-3.9,0-7.3,2.2-7.4,7.5H393.8
		L393.8-165.7z M378.7-162.9c0.3,2.7,2,6.4,6,6.4c4.4,0,5.5-3.9,5.4-6.4H378.7z"/>
	<path id="path203" inkscape:connector-curvature="0" class="st0" d="M414.8-172c-1.1-0.5-2.6-1.1-4.8-1.1c-4.3,0-7.5,3.1-7.5,8.1
		c0,4.5,2.7,8.2,7.6,8.2c2.1,0,3.6-0.5,4.5-1l0.9,3c-1.1,0.5-3.1,1.1-5.4,1.1c-7,0-11.6-4.8-11.6-11.4c0-6.6,4.2-11,10.7-11
		c2.9,0,5.2,0.8,6.2,1.3L414.8-172L414.8-172z"/>
	<path id="path205" inkscape:connector-curvature="0" class="st0" d="M425.2-144.1h-3.9v-31.6h3.9v8.1l2,2.2l7.4-10.3h4.8l-9.5,12.7
		l8.3,8.9h-4.7l-6.3-7.4c-0.6-0.8-1.4-1.7-1.9-2.4h-0.1C425.2-164.1,425.2-144.1,425.2-144.1z"/>
</g>
<g id="g22" transform="translate(452.5171,231.0192)">
	<path id="path24" inkscape:connector-curvature="0" class="st1" d="M10.7,73v78.6"/>
</g>
<g id="g26" transform="translate(275.542,268.1227)">
	<path id="path28" inkscape:connector-curvature="0" class="st0" d="M-33.5-10.5l-14.2-41.7h-49.8l-14.4,41.7h-33.4l56.6-166.3h33.1
		l-11.6,35.1l23.8,68.7H-102l17.9-52.6l5.8,16.9l-9.1,25.3h29.1l-20-58.6l8.3-24.5H-81l-50,145.6h11.1l14.4-41.7h65.5l14.2,41.7
		h11.1L-56-141.7l5.8-16.7L0.1-10.5H-33.5z"/>
</g>
<rect x="-102.4" y="-151.3" class="st2" width="1052.4" height="744.1"/>
<g id="g32">
	<g id="g38" transform="translate(310.7295,310.1789)">
		<path id="path40" inkscape:connector-curvature="0" class="st0" d="M-24.7-105.1H6.6c0,14.2,19.7,22.2,36.1,22.2
			c18.5,0,35.1-8.1,35.1-26c0-18.7-16.2-22.5-38.2-26.8c-19.5-3.8-38.9-10.9-38.9-34.1c0-20.5,18.7-29.3,35.9-29.3
			c17.7,0,35.1,6.8,39.9,21.5h10.6c-3.8-21.5-28.1-32.1-50.5-32.1c-21.2,0-46.3,11.9-46.3,38.7c0,27.3,20.5,43,50.5,45.5v1.3
			c-30.6,0-60.9-14.4-60.9-49c0-30.8,27.5-47,56.6-47c30.1,0,61.7,16.2,61.7,48.8v4.3H66.3v-3.3c0-13.6-16.7-17.9-29.6-17.9
			c-8.6,0-25.5,3.3-25.5,19c0,13.6,11.9,20.2,28.6,23c20.2,3.3,50,10.6,50,36.9C89.8-85.9,68-72.3,43-72.3
			c-21.5,0-37.9-9.6-44.5-22.5h-11.4C-6.3-73.5,17-61.4,42.8-61.4c30.8,0,57.4-17.7,57.4-46.8c0-8.1-1.8-19.2-10.4-26.8v-1.5
			c10.6,6.1,18.2,20.2,18.2,32.4c0,33.9-28.8,53.3-65.2,53.3C9.4-50.8-24.7-70.5-24.7-105.1"/>
	</g>
	<g id="g42" transform="translate(604.9155,268.1227)">
		<path id="path44" inkscape:connector-curvature="0" class="st0" d="M48.8-10.5L34.7-52.2h-49.8l-14.4,41.7h-33.4l56.6-166.3h33.1
			l-11.6,35.1L39-72.9h-58.6l17.9-52.6l5.8,16.9L-5-83.3h29.1l-20-58.6l8.3-24.5H1.3l-50,145.6h11.1l14.4-41.7h65.5l14.2,41.7h11.1
			L26.3-141.7l5.8-16.7L82.4-10.5H48.8z"/>
	</g>
	<g id="g46" transform="translate(633.1118,443.631)">
		<path id="path48" inkscape:connector-curvature="0" class="st0" d="M55.9-405.4c0.4,0.2,0.7,0.4,1.1,0.6
			C56.6-405,56.2-405.2,55.9-405.4 M29.1-435.5c-14.4-5.2-30.1-6.6-45.3-5.8c-6.7,0.4-13.4,1.5-19.8,3.2c-6.2,1.6-12.5,3.9-18.1,7.2
			c-5.6,3.3-10.8,7.1-16.1,10.9c-1.6,1.2-3.2,2.3-4.8,3.5c0,0,0,0.1,0,0c3.4-1.6,6.8-3.2,10.2-4.8c5.2-2.4,10.3-4.9,15.8-6.6
			c7.7-2,15.4-3.1,23.3-3.2c11.4,0.1,22.8,1.9,33.9,4.7c10.1,2.8,20,6.5,29.5,11c3.8,1.8,7.5,3.9,11.2,5.8c2.2,1.3,4.3,2.6,6.5,3.8
			c4.6,3,9.4,5.9,13.7,9.4c2.4,1.9,4.8,3.8,7.1,5.8c1.9,1.7,3.7,3.4,5.5,5.2c2.5,2.7,4.8,5.5,6.8,8.7c1,1.9,1.9,3.9,2.5,6
			c0.3,1.1,0.4,2.2,0.4,3.3c0-0.1,0-0.1,0-0.2c-0.1,1.4-0.2,2.7-0.4,4c0,0,0,0,0.1,0c0.6-1.2,1.2-2.5,1.6-3.9
			c0.6-2.4,0.6-4.5,0.4-6.9c-0.5-5.4-3-11-5.9-15.6c-2.7-4.3-5.5-8.3-8.8-12.2c-3.5-4.1-7.4-7.9-11.5-11.5c-3.5-3.1-7.2-6-11.2-8.5
			c-2.4-1.5-4.9-3-7.3-4.5c-4.3-2.6-8.9-4.9-13.6-6.8C32.8-434.2,31-434.9,29.1-435.5"/>
	</g>
	<g id="g50" transform="translate(658.4223,403.571)">
		<path id="path52" inkscape:connector-curvature="0" class="st0" d="M62.2-315.3c0,0,1.6-6.7,1.8-8.1c0.4-2.9-0.2-5.8-0.4-6.6
			c-0.5-1.8-1.2-3.5-2.3-5.5c-1.6-2.6-3.7-5.3-6.5-8.2c-1.7-1.7-3.5-3.4-5.3-5c-1.9-1.7-3.9-3.3-5.9-4.9l-1-0.8
			c-3.3-2.6-6.9-5-10.4-7.2l-3.2-2.1c-2.1-1.2-4.2-2.5-6.4-3.8l-3.5-1.9c-2.5-1.3-5-2.6-7.5-3.9c-9.3-4.4-19.1-8.1-29.1-10.9
			c-11.5-2.9-22.7-4.5-33.3-4.6c-7.6,0.1-15.1,1.1-22.7,3.1c-4.5,1.4-8.9,3.4-13.2,5.4l-2.2,1c-3.4,1.6-6.8,3.1-10.2,4.8l-17.1,8.2
			l13.4-10.9l1.6-1.1c1.5-1.1,3.1-2.3,4.7-3.5l2.2-1.6c4.5-3.2,9.2-6.5,14-9.4c5.1-3,11.3-5.5,18.6-7.4c6.8-1.8,13.6-2.9,20.3-3.3
			c17.2-0.9,32.7,1.1,46.1,5.9v0c1.9,0.7,3.8,1.4,5.6,2.2c5,2.1,9.7,4.4,13.9,7c2.5,1.5,4.9,3,7.4,4.5c4.3,2.7,8.2,5.9,11.4,8.7
			c4.6,3.9,8.4,7.8,11.8,11.7c3.1,3.7,6,7.6,9,12.4c2.5,4.1,5.6,10.2,6.2,16.5c0.2,2.8-0.5,8.2-2,11.4
			C65.9-318.6,62.2-315.3,62.2-315.3"/>
	</g>
	<g id="g54" transform="translate(675.2504,426.4977)">
		<path id="path56" inkscape:connector-curvature="0" class="st0" d="M66.4-366.8C66.4-366.8,66.4-366.8,66.4-366.8
			C66.4-366.8,66.4-366.9,66.4-366.8C66.4-366.9,66.4-366.9,66.4-366.8 M138.6-378.9c-8.3-2.2-16.7-3.9-25.3-4.3
			c-1.9-0.1-3.8-0.2-5.7-0.1c-2,0.1-4,0.1-6,0.2c-1.7,0.1-3.4,0.3-5.1,0.5c-1.6,0.2-3.2,0.5-4.8,0.8c-7.4,1.4-15,3.7-21,8.4
			c-1.7,1.3-3.2,3-4.4,4.8c-1,1.5-1.5,3.3-1.8,5c-0.4,2.4-0.2,4.8,0,7.2c0,0,0.1,0,0.1,0c0-0.9,0-1.8,0-2.6c0-1.7,0.2-3.3,0.6-5
			c0,0,0,0.1,0,0.1c0.3-1,0.7-1.9,1.1-2.8c0,0,0,0,0,0c0,0,0,0,0-0.1c0,0,0,0,0,0c0,0,0,0,0,0c0.6-1,1.3-1.8,2.1-2.7
			c1.4-1.3,2.8-2.3,4.4-3.2c-0.1,0-0.1,0.1-0.2,0.1c2.7-1.5,5.6-2.5,8.6-3.4c2.7-0.7,5.5-1.3,8.2-1.6c1.6-0.2,3.3-0.3,4.9-0.5
			c2.4-0.3,4.9-0.3,7.3-0.4c2,0,4,0,6,0c2,0.1,4,0.2,6,0.2c1.9,0.1,3.8,0.3,5.7,0.4c3.6,0.3,7.3,0.8,10.9,1.3
			c3.7,0.5,7.4,1.2,11.2,1.9c3.5,0.6,7,1.5,10.5,2.3c0,0,0,0,0,0c1.3,0.3,2.6,0.7,3.8,1c-0.1,0-0.1,0-0.2,0c2.8,0.8,5.6,1.6,8.4,2.4
			c0,0,0.1,0,0,0c-3.6-1.7-7.2-3.3-10.8-4.8C148.5-375.9,143.7-377.6,138.6-378.9"/>
	</g>
	<g id="g58" transform="translate(672.8784,418.1877)">
		<path id="path60" inkscape:connector-curvature="0" class="st0" d="M65.8-348.2c-1.1-2.1-1.4-5-0.9-7.5c0.4-2.3,1.1-4.2,2.1-5.8
			c1.3-2,3-3.8,4.9-5.3c1.1-0.9,2.3-1.7,3.6-2.4l2.7-1.5c4.3-2.1,9.4-3.7,15.6-4.9c1.7-0.3,3.3-0.6,5-0.8l1.5-0.2
			c1.3-0.2,2.5-0.3,3.8-0.4c2-0.1,4-0.2,6-0.2c1.4,0,2.8,0,4.2,0.1l1.6,0.1c9.3,0.3,18.2,2.4,25.7,4.3c4.6,1.2,9.4,2.9,14.9,5.1
			c3.7,1.5,7.3,3.2,10.9,4.9l1.8,0.9l-1.6,3.8l-2-0.8c-2.3-0.7-4.9-1.4-7.4-2.1l-4.3-1.1l0,0l-0.9-0.2c-3.2-0.7,5.6,3.5,2.4,2.9
			c-3.7-0.7-9.4-5.2-23-6.9c0,0-7.6-1.1-10.7-1.3l-2-0.2c-1.2-0.1-2.4-0.2-3.6-0.3c-2-0.1-4-0.1-6-0.2c-1.9,0-3.9,0-5.9,0l-2.1,0.1
			c-1.6,0.1-3.3,0.1-4.9,0.3l-4.9,0.5c-2.8,0.3-5.6,0.9-7.9,1.5c-3.1,0.9-8.7,3.1-8.7,3.1c-1.4,0.9-3.2,1.6-4.4,2.6
			c-0.7,0.7-3.9,2.8-3.7,8.9c0,2.4,2.1,6.1,2.1,6.1S66.9-346,65.8-348.2"/>
	</g>
	<g id="g62" transform="translate(679.6205,446.882)">
		<path id="path64" inkscape:connector-curvature="0" class="st0" d="M67.5-412.7L67.5-412.7C67.5-412.7,67.5-412.7,67.5-412.7
			L67.5-412.7z M122.5-410.5c-8.6-2.3-17.4-4.2-26.3-5.1c-6.8-0.7-13.5-0.7-20.3-0.4c-3.2,0.2-6.4,0.5-9.5,1.3
			c-2.9,0.7-5.5,2-8.2,3.4c0,0,0,0.1,0,0.1c3.1-0.7,6.1-1.3,9.3-1.5c-0.1,0-0.1,0-0.2,0c0.1,0,0.1,0,0.2,0c0,0,0,0,0.1,0
			c0,0,0,0-0.1,0c8.6,0.1,17.1,2.1,25.5,4.1c7.9,2.2,15.7,4.8,23.4,7.5c8,2.7,15.9,5.4,23.9,8c7.6,2.5,15.4,5.1,22.6,8.6
			c7.1,3.5,14,7.4,20.9,11.3c-0.1,0-0.1-0.1-0.1-0.1c1.6,0.9,3.2,1.9,4.8,3c0,0,0.1,0,0,0c-3.1-2.9-6.1-5.8-9.2-8.7
			c-3.2-3-6.3-6-9.6-8.9c-6.5-5.6-13.9-10-21.7-13.5c-1.7-0.8-3.4-1.5-5-2.2C136.3-406.3,129.5-408.6,122.5-410.5"/>
	</g>
	<g id="g66" transform="translate(785.4887,405.4694)">
		<path id="path68" inkscape:connector-curvature="0" class="st0" d="M94-319.5l-12.6-7.5c-1.5-0.9-3-1.9-4.6-2.8l0,0
			c-6.5-3.7-13.4-7.7-20.6-11.2c-6.8-3.3-13.9-5.7-22.3-8.5c-7.1-2.3-14.1-4.7-21.2-7.1l-2.7-0.9c-7.6-2.6-15.4-5.2-23.3-7.4
			c-8.3-2.1-19.9-3.8-25.1-3.5c-8.8,0.3-17.3,3.8-17.3,3.8s3.1-3.1,8.7-6c5.6-2.9,7.4-3.1,10.4-3.9c2.9-0.7,7.4-1.6,11.2-1.8
			c7.6-0.4,9.9-0.4,16.2,0.3c8,0.8,16.4,2.5,26.6,5.2l0,0c6.9,1.8,13.7,4.1,20.6,7c1.7,0.7,3.4,1.4,5.1,2.2
			c8.6,3.9,13.6,6.9,21.1,12.3c2.9,2.1,2.6,1.3,13.6,11.5C88.6-327.9,94-319.5,94-319.5"/>
	</g>
	<g id="g70" transform="translate(616.183,369.5192)">
		<path id="path72" inkscape:connector-curvature="0" class="st0" d="M51.6-238.6c0,0,1.5-2,6.9-4.3c5.3-2.2,4.8-2,6.6-2.6l2.2-0.8
			c3.1-1.1,6-2.6,9-4.3l0.6-0.3c4-2.4,7.3-4.8,10.2-7.5c1.5-1.5,3.7-3.5,5.4-5c3.5-2.8,8.1-7.9,8.1-7.9s-0.3,3.3-1.1,6.2
			c-0.4,1.7-4,10.1-10,15.6c-4.6,4.1-10.4,7.2-16.5,8.5c-3.9,0.8-7.8,1.2-12.4,1.5L51.6-238.6z"/>
	</g>
	<g id="g74" transform="translate(681.8989,370.7296)">
		<path id="path76" inkscape:connector-curvature="0" class="st0" d="M68.1-241.4L68.1-241.4L68.1-241.4z M67.3-242.7
			c0.2,0.3,0.3,0.6,0.5,0.9C67.7-242.1,67.5-242.4,67.3-242.7 M51.6-274c0.5,3.5,1.3,6.9,1.9,10.4c0.3,1.8,0.6,3.7,0.9,5.5
			c0.4,2.1,1,4.2,1.6,6.3c0.9,3.2,2,6.4,3.1,9.5c0.3,0.8,0.6,1.7,1,2.5c-1.3-0.2-2.6-0.4-3.9-0.6c-4.8-0.5-9.5-0.6-14.3-0.5
			c-9.6,0.3-19.1,2.8-28.3,5.1c0,0,0,0.1,0,0.1c4.8-0.2,9.5-0.2,14.3-0.3c2.5,0.1,5.1,0.1,7.6,0.3c2.4,0.2,4.8,0.5,7.2,0.9
			c4.8,0.8,9.6,1.8,14.4,2.9c0.2,0.1,0.5,0.1,0.7,0.2c-0.1,0-0.1,0-0.2,0c2.9,0.8,5.9,2,8.9,1.9c0.9,0,2-0.3,2.7-0.9
			c1.2-0.9,1.5-1.9,1.9-3.3c0.5-1.8-0.9-3.7-1.7-5.1c0,0,0,0,0,0c-0.5-0.8-0.9-1.6-1.4-2.4c0.1,0.1,0.2,0.3,0.3,0.4
			c-0.1-0.2-0.2-0.3-0.3-0.5c0,0,0,0,0,0c0,0,0,0,0-0.1c-0.1-0.1-0.1-0.2-0.2-0.4c-2.9-5.2-5.9-10.4-8.6-15.8
			c-1.3-2.7-2.4-5.4-3.6-8.1C54.3-268.5,53-271.2,51.6-274C51.7-274,51.6-274,51.6-274C51.6-274.1,51.6-274,51.6-274"/>
	</g>
	<g id="g78" transform="translate(683.3588,371.5734)">
		<path id="path80" inkscape:connector-curvature="0" class="st0" d="M68.4-243.3L68.4-243.3L68.4-243.3z M55.8-230.5L55.8-230.5
			L55.8-230.5L55.8-230.5z M65-228.5c-2.6,0-5.1-0.7-7.5-1.5c-0.6-0.2-1.2-0.4-1.8-0.5l-0.5-0.1c-4.6-1.1-9.4-2.1-14.3-2.9
			c-2.3-0.4-4.7-0.7-7-0.9c-2.3-0.2-4.5-0.3-6.8-0.3l-0.7,0l-2.3,0c-4,0.1-7.9,0.1-11.9,0.3l-1.9,0.1L-6.6-234l20.3-5.1
			c8.7-2.1,17.6-4.4,26.7-4.6c5.4-0.1,10.1,0,14.6,0.5c0.1,0,0.3,0,0.4,0c-0.9-2.5-2-5.6-2.9-8.9c-0.6-2.2-1.2-4.3-1.6-6.5
			c-0.2-1-0.4-2.1-0.5-3.1c-0.1-0.8-0.2-1.6-0.4-2.4c-0.3-1.6-0.6-3.1-0.9-4.7c-0.4-1.9-0.5-1.9-0.9-6.2c-0.5-4.3,1-7,1-7
			s4.3,9.2,5.1,10.7c0.6,1.2,1.2,2.5,1.8,3.7c0.6,1.2,1.1,2.5,1.7,3.7c0.6,1.5,1.3,2.9,2,4.4c2.3,4.8,5.1,9.6,7.7,14.2l2.4,4.2h0
			l0.3,0.6c0.9,1.6,2.2,3.7,1.6,6.1c-0.4,1.4-0.9,3-2.6,4.4c-1.1,0.9-2.5,1.4-4,1.4C65.1-228.5,65-228.5,65-228.5"/>
	</g>
	<g id="g82" transform="translate(665.1752,453.9762)">
		<path id="path84" inkscape:connector-curvature="0" class="st0" d="M63.9-428.7C63.9-428.7,63.9-428.7,63.9-428.7
			C63.9-428.7,63.9-428.7,63.9-428.7C63.9-428.7,63.9-428.7,63.9-428.7 M38.6-437.5C38.6-437.5,38.5-437.5,38.6-437.5
			C38.5-437.5,38.6-437.5,38.6-437.5 M47.1-436.9C47.1-436.9,47.1-436.9,47.1-436.9C47.1-436.9,47.1-436.9,47.1-436.9"/>
	</g>
	<g id="g86" transform="translate(651.475,458.9201)">
		<path id="path88" inkscape:connector-curvature="0" class="st0" d="M60.5-439.8L60.5-439.8 M82.6-426.9l-3.2-2.7
			c0,0-4.1-3.5-4.4-3.8c-2.1-1.6-4.5-2.9-6.9-4.1c-2.3-1-4.8-1.7-7.9-2.3c-3.1-0.5-5.5-0.7-7.7-0.6l-0.1,0c-3,0.1-6.9,1.4-6.4,1.4
			c0,0-0.8-1-0.3-2.5c0.4-1.6,1.4-2.2,1.4-2.2c1.6-1.4,3.1-1.7,5-2.2c1.7-0.4,4-0.7,5.9-0.7c1.3,0,5-0.3,9.3,1.4
			c0.3,0.1,0.6,0.2,0.9,0.3c3.7,1.5,7.2,4,9.9,7c1.5,1.7,2.4,3.4,3.3,5.9C81.2-432.1,82.6-426.9,82.6-426.9z"/>
	</g>
	<g id="g90" transform="translate(626.3666,436.0793)">
		<path id="path92" inkscape:connector-curvature="0" class="st0" d="M54.2-388.4C54.2-388.4,54.2-388.4,54.2-388.4
			C54.2-388.4,54.2-388.4,54.2-388.4 M33.7-384.7c-0.1,0-0.2,0.1-0.3,0.1C33.5-384.7,33.6-384.7,33.7-384.7
			C33.7-384.7,33.7-384.7,33.7-384.7z"/>
	</g>
	<g id="g94" transform="translate(609.5717,427.6427)">
		<path id="path96" inkscape:connector-curvature="0" class="st0" d="M50-369.4c-2.2,0.1-4.6-0.2-5.1-1.7c-1.3-3.9,3.7-7.1,4.8-7.8
			c1.4-0.8,2.9-1.7,4.3-2.4c3.3-1.7,6.5-2.7,9.2-3.8c0,0,4.5-1.6,3.6-0.5c-1.3,1.8-3.6,3.8-3.6,3.8c-0.2,0.2-4.7,4.9-4.9,5.1
			c2.3-0.4,11.6-4.1,11.6-4.1s6.4-1.8,7.8-1.3c1.8,0.6-6.7,5-6.7,5c-2.8,1.6-5.9,3-9,4.3c-2.2,0.9-6.7,2.5-6.7,2.5
			C54-369.9,50.3-369.4,50-369.4"/>
	</g>
	<path id="path98" inkscape:connector-curvature="0" class="st0" d="M480.2,143.1h42.7v-10.4h-42.7V143.1z"/>
	<g id="g100" transform="translate(474.1665,351.4396)">
		<path id="path102" inkscape:connector-curvature="0" class="st0" d="M16.1-198H6v73v8.5v1.9h28.3v10.4l-38.7,0V-198h-21.2v-10.4
			h21.2v-10.4h0V-229h20.5v-10.4H-15v20.7h-20.7v31.1H-15v93.8h59.4v-31.1l-28.3,0V-198z"/>
	</g>
</g>
</svg>
